<?xml version="1.0" encoding="utf-8"?>
<!-- Generator: Adobe Illustrator 19.0.0, SVG Export Plug-In . SVG Version: 6.00 Build 0)  -->
<svg version="1.1" id="Layer_1" xmlns="http://www.w3.org/2000/svg" xmlns:xlink="http://www.w3.org/1999/xlink" x="0px" y="0px"
	 viewBox="0 0 92.4 59.9" style="enable-background:new 0 0 92.4 59.9;" xml:space="preserve">
<style type="text/css">
	.st0{fill:#1A1A1A;}
</style>
<g id="XMLID_15_">
	<path id="XMLID_16_" class="st0" d="M53.2,12.9V43h-6.7V13.8c0-6.5-2.7-8.6-6.2-8.6c-4.7,0-7.4,3.1-10.4,7.8v30h-6.7V13.8
		c0-6.5-2.7-8.6-6.2-8.6c-4.6,0-7.4,3.1-10.3,7.8v30H0V1h5.8l0.6,6.3C9.3,3,13.2,0,18.6,0c5.3,0,9,3,10.6,7.8c3-4.6,7-7.8,12.7-7.8
		C48.8,0,53.2,5,53.2,12.9z"/>
	<path id="XMLID_18_" class="st0" d="M92.4,21.9C92.4,34.8,86.8,44,76,44c-4.7,0-8.6-1.7-11.2-5v20.1L58,59.9V1h5.8l0.6,5.8
		c3-4.3,7.5-6.8,12.5-6.8C87.9,0,92.4,8.6,92.4,21.9z M85.2,21.9c0-11.2-3.4-16.6-9.9-16.6c-4.6,0-8.2,3.2-10.5,6.7v21
		c2.2,3.4,5.6,5.4,9.7,5.4C81.4,38.5,85.2,33.2,85.2,21.9z"/>
</g>
</svg>
