<?xml version="1.0" encoding="utf-8"?>
<!-- Generator: Adobe Illustrator 19.0.0, SVG Export Plug-In . SVG Version: 6.00 Build 0)  -->
<svg version="1.1" id="Layer_1" xmlns="http://www.w3.org/2000/svg" xmlns:xlink="http://www.w3.org/1999/xlink" x="0px" y="0px"
	 viewBox="0 0 181.2 154" style="enable-background:new 0 0 181.2 154;" xml:space="preserve">
<g id="XMLID_74_">
	<path id="XMLID_75_" d="M65.8,38.6v39.8H48.6V42.2c0-4.2-1-5.3-2.3-5.3c-1.7,0-3.4,1.7-4.8,5.4v36.1H24.3V42.2c0-4.2-1-5.3-2.3-5.3
		c-1.6,0-3.4,1.7-4.8,5.4v36.1H0V24.4h15l1.2,5.5c3.7-5.3,7.9-7.5,13.5-7.5c4.8,0,8.6,2.7,10.4,7.8c3.9-5.5,8.2-7.8,13.9-7.8
		C61,22.4,65.8,28.3,65.8,38.6z"/>
</g>
<g id="XMLID_70_">
	<path id="XMLID_71_" d="M147.5,77.2h-15.3l-0.6-5.6c-2.4,3.7-6.4,7.6-13.1,7.6c-12.1,0-17.6-11.5-17.6-29.3
		c0-16.8,7.5-28.7,19.8-28.7c3.5,0,7,1.5,9.6,4.2V0l17.2,2V77.2z M130.3,60.1V38.5c-1.6-1.9-3-3-5-3c-3.8,0-6.8,3.7-6.8,14.6
		c0,12.9,2.7,14.7,6,14.7C126.6,64.8,128.6,63.4,130.3,60.1z"/>
</g>
<g id="XMLID_67_">
	<path id="XMLID_68_" d="M90.9,78.4l-6.1-17.9l-5.6,17.9H60.8L75,51.1L62,26.4h19l4.5,15.3l4.1-15.3h18L95.8,50.5l14.3,27.9H90.9z"
		/>
</g>
<g id="XMLID_63_">
	<path id="XMLID_64_" d="M178.7,103.9c0,16.8-7.4,29.2-18.5,29.2c-4.3,0-8-1.8-10.8-5.4V152l-17.2,2V77.1h15.3l0.7,5.3
		c4-5.6,9-7.3,12.8-7.3C173.1,75.1,178.7,86.1,178.7,103.9z M161,104.2c0-13-2.4-14.7-5.9-14.7c-1.9,0-4,1.4-5.7,5.1v20.6
		c1.6,2.7,3,3.7,5.1,3.7C158.3,118.9,161,115.1,161,104.2z"/>
</g>
<g id="XMLID_60_">
	<path id="XMLID_61_" d="M179.3,28.2L173.2,39c-3.3-2.4-7.3-3.9-10.3-3.9c-3.6,0-4.6,1-4.6,2.4c0,1.8,0.5,2.6,9.3,5.8
		c8.8,3.1,13.6,7.6,13.6,17.4c0,11.1-9.1,18.6-22,18.6c-8.2,0-15.6-3.3-20.4-8.6l8.2-10.5c3.3,3,7.6,5.4,11.6,5.4c3.2,0,5-1.1,5-3.3
		c0-2.6-1-3.1-8.9-6c-8.7-3-13.5-8.8-13.5-17.5c0-9.7,7.2-17.5,20.2-17.5C168.4,21.2,175.1,23.9,179.3,28.2z"/>
</g>
<rect id="XMLID_8_" x="105.4" y="26.4" width="9" height="3.2"/>
<rect id="XMLID_9_" x="105.1" y="66.6" width="9.6" height="11.8"/>
</svg>
